<svg width="412" height="282" viewBox="0 0 412 282" fill="none" xmlns="http://www.w3.org/2000/svg">
<path d="M350.062 1.97656V17.0156H371.352V72.6797H389.711V17.0156H411V1.97656H350.062ZM412 18.0156H390.711V73.6797H370.352V18.0156H349.062V0.976562H412V18.0156Z" fill="#414B56"/>
<path d="M300.453 45.7266V1.97656H281.898V47.3867C281.898 63.4023 294.008 73.5586 312.172 73.5586C330.336 73.5586 342.543 63.4023 342.543 47.3867V1.97656H323.988V45.7266C323.988 52.5625 319.105 57.4453 312.172 57.4453V56.4453C315.398 56.4453 318.091 55.3135 319.976 53.4404C321.859 51.5675 322.988 48.8997 322.988 45.7266V0.976562H343.543V47.3867C343.543 55.6679 340.377 62.4961 334.818 67.2393C329.275 71.9687 321.434 74.5586 312.172 74.5586C302.91 74.5586 295.092 71.9681 289.573 67.2373C284.038 62.493 280.898 55.6653 280.898 47.3867V0.976562H301.453V45.7266C301.453 52.0102 305.888 56.4453 312.172 56.4453V57.4453C305.336 57.4453 300.453 52.5625 300.453 45.7266Z" fill="#414B56"/>
<path d="M272.816 37.3281C272.816 13.793 257.777 1 238.637 1C219.301 1 204.359 13.793 204.359 37.3281C204.359 60.7656 219.301 73.6562 238.637 73.6562C257.777 73.6562 272.816 60.8633 272.816 37.3281ZM252.676 37.3281C252.676 30.9502 251.354 26.165 248.981 22.998C246.642 19.8753 243.196 18.2109 238.637 18.2109C234.025 18.2109 230.555 19.8779 228.205 23C225.822 26.1662 224.5 30.95 224.5 37.3281C224.5 43.7062 225.822 48.4901 228.205 51.6562C230.555 54.7784 234.025 56.4453 238.637 56.4453V57.4453C228.871 57.4453 223.5 50.3164 223.5 37.3281C223.5 24.3398 228.871 17.2109 238.637 17.2109C248.305 17.2109 253.676 24.3398 253.676 37.3281C253.676 50.3164 248.305 57.4453 238.637 57.4453V56.4453C243.196 56.4453 246.642 54.781 248.981 51.6582C251.354 48.4913 252.676 43.7061 252.676 37.3281ZM273.816 37.3281C273.816 49.315 269.981 58.6673 263.61 65.0254C257.244 71.3795 248.431 74.6562 238.637 74.6562C228.745 74.6562 219.907 71.3554 213.54 64.9883C207.169 58.6177 203.359 49.2653 203.359 37.3281C203.359 25.3431 207.169 15.99 213.541 9.63086C219.909 3.27537 228.747 0 238.637 0C248.431 0 257.244 3.27678 263.61 9.63086C269.981 15.9889 273.816 25.3413 273.816 37.3281Z" fill="#414B56"/>
<path d="M139.102 0.976562H170.375V1.97656H140.102V72.6797H172.914C188.344 72.6797 197.719 64.2812 197.719 52.7578C197.719 42.6992 190.297 36.1562 181.41 35.8633V35.1797C189.418 33.5195 194.984 27.5625 194.984 19.75C194.984 8.91016 186.488 1.97656 170.375 1.97656V0.976562C178.557 0.976562 184.949 2.73453 189.32 5.99707C193.73 9.2879 195.984 14.0382 195.984 19.75C195.984 27.0315 191.452 32.7499 184.743 35.2568C192.606 36.8924 198.719 43.394 198.719 52.7578C198.719 58.8113 196.247 64.0767 191.74 67.8105C187.248 71.5321 180.804 73.6797 172.914 73.6797H139.102V0.976562ZM177.09 50.4141C177.09 48.0851 176.267 46.357 174.854 45.1914C173.414 44.0045 171.249 43.3086 168.422 43.3086H159.656V56.7383H168.129V57.7383H158.656V42.3086H168.422C174.379 42.3086 178.09 45.2383 178.09 50.4141C178.09 55.1992 174.77 57.7383 168.129 57.7383V56.7383C171.349 56.7383 173.589 56.1177 175.003 55.0674C176.365 54.0561 177.09 52.5499 177.09 50.4141ZM174.844 23.6562C174.844 21.6988 174.092 20.2364 172.831 19.2402C171.543 18.2221 169.635 17.625 167.25 17.625H159.656V29.6875H166.957V30.6875H158.656V16.625H167.25C172.328 16.625 175.844 19.1641 175.844 23.6562C175.844 28.1484 172.133 30.6875 166.957 30.6875V29.6875C169.395 29.6875 171.383 29.0883 172.736 28.0605C174.059 27.0556 174.844 25.5936 174.844 23.6562Z" fill="#414B56"/>
<path d="M110.354 0.976562L134.455 73.6797H112.309L108.109 59.8125H85.8633L81.6641 73.6797H59.418L83.6191 0.976562H110.354ZM84.3398 1.97656L60.8047 72.6797H80.9219L85.1211 58.8125H108.852L113.051 72.6797H133.07L109.633 1.97656H84.3398ZM97.2305 21.0195L104.555 44.75H89.418L96.6445 21.0195H97.2305ZM90.7686 43.75H103.2L96.9414 23.4746L90.7686 43.75Z" fill="#414B56"/>
<path d="M411 208.312C411 161.242 380.922 135.656 342.641 135.656C303.969 135.656 274.086 161.242 274.086 208.312C274.086 255.188 303.969 280.969 342.641 280.969C380.922 280.969 411 255.383 411 208.312ZM371.719 208.312C371.719 195.44 369.054 185.626 364.13 179.054C359.239 172.525 352.034 169.078 342.641 169.078C333.146 169.078 325.892 172.528 320.979 179.056C316.032 185.628 313.367 195.44 313.367 208.312C313.367 221.185 316.032 230.997 320.979 237.569C325.892 244.097 333.146 247.547 342.641 247.547V248.547C323.109 248.547 312.367 234.289 312.367 208.312C312.367 182.336 323.109 168.078 342.641 168.078C361.977 168.078 372.719 182.336 372.719 208.312C372.719 234.289 361.977 248.547 342.641 248.547V247.547C352.034 247.547 359.239 244.1 364.13 237.571C369.054 230.999 371.719 221.185 371.719 208.312ZM412 208.312C412 232.067 404.405 250.502 391.882 263C379.363 275.494 362.005 281.969 342.641 281.969C323.081 281.969 305.674 275.445 293.154 262.926C280.631 250.403 273.086 231.968 273.086 208.312C273.086 184.56 280.631 166.124 293.155 153.625C305.676 141.13 323.083 134.656 342.641 134.656C362.005 134.656 379.363 141.131 391.882 153.625C404.405 166.123 412 184.558 412 208.312Z" fill="#EC5548"/>
<path d="M144.766 136.609H205.922V137.609H145.766V279.016H182.875V231.945H197.523L222.523 279.016H262.953L234.047 226.086C249.281 218.859 258.266 204.992 258.266 185.461C258.266 155.578 237.562 137.609 205.922 137.609V136.609C221.926 136.609 235.271 141.155 244.628 149.586C253.997 158.028 259.266 170.276 259.266 185.461C259.266 204.944 250.454 218.999 235.426 226.524L264.639 280.016H221.922L221.641 279.484L196.923 232.945H183.875V280.016H144.766V136.609ZM218.398 185.461C218.398 179.44 216.482 175.221 213.016 172.476C209.506 169.696 204.251 168.297 197.328 168.297H183.875V201.844H197.328V202.844H182.875V167.297H197.328C211.391 167.297 219.398 172.961 219.398 185.461C219.398 197.766 211.391 202.844 197.328 202.844V201.844C204.27 201.844 209.531 200.585 213.038 197.966C216.488 195.39 218.398 191.377 218.398 185.461Z" fill="#EC5548"/>
<path d="M17.6172 136.609H78.7734V137.609H18.6172V279.016H55.7266V236.438H77.6016C109.828 236.438 131.117 217.492 131.117 187.219C131.117 157.531 110.414 137.609 78.7734 137.609V136.609C94.8048 136.609 108.153 141.659 117.5 150.557C126.852 159.458 132.117 172.134 132.117 187.219C132.117 202.602 126.701 215.188 117.118 223.92C107.546 232.643 93.9075 237.438 77.6016 237.438H56.7266V280.016H17.6172V136.609ZM91.25 187.219C91.25 181.291 89.3284 176.599 85.8135 173.381C82.2874 170.152 77.0369 168.297 70.1797 168.297H56.7266V206.531H70.1797V207.531H55.7266V167.297H70.1797C84.2422 167.297 92.25 174.914 92.25 187.219C92.25 199.719 84.2422 207.531 70.1797 207.531V206.531C77.0305 206.531 82.2785 204.63 85.8057 201.332C89.3246 198.041 91.25 193.249 91.25 187.219Z" fill="#EC5548"/>
</svg>
