<svg width="412" height="277" viewBox="0 0 412 277" fill="none" xmlns="http://www.w3.org/2000/svg">
<path d="M281.469 1V142.406H382.25V112.328H318.578V86.7422H377.172V56.6641H318.578V31.0781H382.445V1H281.469ZM383.445 32.0781H319.578V55.6641H378.172V87.7422H319.578V111.328H383.25V143.406H280.469V0H383.445V32.0781Z" fill="#EC5548"/>
<path d="M170.727 1V142.406H265.453V112.328H207.836V1H170.727ZM208.836 111.328H266.453V143.406H169.727V0H208.836V111.328Z" fill="#EC5548"/>
<path d="M114.477 1V142.406H151.586V1H114.477ZM152.586 143.406H113.477V0H152.586V143.406Z" fill="#EC5548"/>
<path d="M1 1V142.406H38.1094V86.7422H93.3828V56.6641H38.1094V31.0781H99.6328V1H1ZM100.633 32.0781H39.1094V55.6641H94.3828V87.7422H39.1094V143.406H0V0H100.633V32.0781Z" fill="#EC5548"/>
<path d="M91.332 204.406V275.109H141.723V260.07H109.887V247.277H139.184V232.238H109.887V219.445H141.82V204.406H91.332ZM142.82 220.445H110.887V231.238H140.184V248.277H110.887V259.07H142.723V276.109H90.332V203.406H142.82V220.445Z" fill="#414B56"/>
<path d="M58.6172 204.406L41.8203 245.52H40.9414L24.1445 204.406H1V275.109H19.1641V233.215H19.75L35.7656 274.621H46.8984L63.0117 233.508H63.5977V275.109H81.7617V204.406H58.6172ZM82.7617 276.109H62.5977V237.304L47.5811 275.621H35.0801L20.1641 237.057V276.109H0V203.406H24.8164L41.3809 243.951L57.9453 203.406H82.7617V276.109Z" fill="#414B56"/>
</svg>
