<svg width="342" height="44" viewBox="0 0 342 44" fill="none" xmlns="http://www.w3.org/2000/svg">
<path d="M61.4641 15.8408H69.1902L74.2108 21.9636L69.1902 28.058H61.4641L66.4847 21.9636L61.4641 15.8408Z" fill="#EC5548"/>
<path d="M52.3433 11.8408H57.4641V25.5986C57.4368 29.5294 54.4134 32.1592 50.0825 32.1592C46.3236 32.1592 43.2456 30.2491 43.2729 25.7093H48.4482C48.5027 27.2318 49.2109 28.0346 50.4093 28.0346C51.6623 28.0346 52.316 27.2042 52.3433 25.5986V11.8408Z" fill="#EC5548"/>
<path d="M16.7466 11.8408H23.2021L27.8871 23.4948H28.1322L32.8172 11.8408H39.2727V31.8824H34.2064V20.09H34.043L29.5486 31.744H26.4434L21.9764 20.0069H21.8129V31.8824H16.7466V11.8408Z" fill="#EC5548"/>
<path d="M5.02059 28.058L0 21.9636L5.02059 15.8408H12.7467L7.72611 21.9636L12.7467 28.058H5.02059Z" fill="#EC5548"/>
<path d="M244.014 22C244.014 28.6713 239.819 32.2976 234.48 32.2976C229.087 32.2976 224.92 28.6436 224.92 22C224.92 15.3287 229.087 11.7024 234.48 11.7024C239.819 11.7024 244.014 15.3287 244.014 22ZM238.675 22C238.675 18.3183 237.177 16.2976 234.48 16.2976C231.757 16.2976 230.258 18.3183 230.258 22C230.258 25.6817 231.757 27.7024 234.48 27.7024C237.177 27.7024 238.675 25.6817 238.675 22Z" fill="#FAFAFA"/>
<path d="M221.829 11.7024V31.7439H216.654V11.7024H221.829Z" fill="#FAFAFA"/>
<path d="M200.652 31.7439V11.7024H205.827V27.481H213.862V31.7439H200.652Z" fill="#FAFAFA"/>
<path d="M197.561 22C197.561 28.6713 193.366 32.2976 188.027 32.2976C182.634 32.2976 178.467 28.6436 178.467 22C178.467 15.3287 182.634 11.7024 188.027 11.7024C193.366 11.7024 197.561 15.3287 197.561 22ZM192.222 22C192.222 18.3183 190.724 16.2976 188.027 16.2976C185.303 16.2976 183.805 18.3183 183.805 22C183.805 25.6817 185.303 27.7024 188.027 27.7024C190.724 27.7024 192.222 25.6817 192.222 22Z" fill="#FAFAFA"/>
<path d="M162.219 31.7439V11.7024H175.975V15.9654H167.395V19.5917H175.103V23.8547H167.395V31.7439H162.219Z" fill="#FAFAFA"/>
<path d="M142.567 15.9654V11.7024H159.564V15.9654H153.626V31.7439H148.505V15.9654H142.567Z" fill="#FAFAFA"/>
<path d="M124.55 31.7439V11.7024H132.939C137.352 11.7024 140.239 14.2491 140.239 18.4844C140.239 21.2526 138.986 23.218 136.861 24.2422L140.893 31.7439H135.254L131.768 25.0727H129.725V31.7439H124.55ZM129.725 20.9481H131.74C133.702 20.9481 134.818 20.2284 134.818 18.4844C134.818 16.7128 133.702 15.91 131.74 15.91H129.725V20.9481Z" fill="#FAFAFA"/>
<path d="M121.459 22C121.459 28.6713 117.264 32.2976 111.925 32.2976C106.532 32.2976 102.365 28.6436 102.365 22C102.365 15.3287 106.532 11.7024 111.925 11.7024C117.264 11.7024 121.459 15.3287 121.459 22ZM116.12 22C116.12 18.3183 114.622 16.2976 111.925 16.2976C109.201 16.2976 107.703 18.3183 107.703 22C107.703 25.6817 109.201 27.7024 111.925 27.7024C114.622 27.7024 116.12 25.6817 116.12 22Z" fill="#FAFAFA"/>
<path d="M84.2107 31.7439V11.7024H92.6001C97.0127 11.7024 99.9 14.526 99.9 18.7336C99.9 23.0242 96.931 25.7093 92.4367 25.7093H89.386V31.7439H84.2107ZM89.386 21.6125H91.4016C93.3628 21.6125 94.4796 20.5052 94.4796 18.7336C94.4796 16.9896 93.3628 15.91 91.4016 15.91H89.386V21.6125Z" fill="#FAFAFA"/>
<path d="M329.21 16H336.936L341.957 22.1227L336.936 28.2171H329.21L334.231 22.1227L329.21 16Z" fill="#EC5548"/>
<path d="M280.492 10L274.146 34H269.76L276.134 10H280.492Z" fill="#EC5548"/>
<path d="M320.089 12H325.21V25.7578C325.183 29.6886 322.159 32.3183 317.828 32.3183C314.069 32.3183 310.991 30.4083 311.019 25.8685H316.194C316.249 27.391 316.957 28.1938 318.155 28.1938C319.408 28.1938 320.062 27.3633 320.089 25.7578V12Z" fill="#EC5548"/>
<path d="M284.492 12H290.948L295.633 23.654H295.878L300.563 12H307.019V32.0415H301.952V20.2491H301.789L297.294 31.9031H294.189L289.722 20.1661H289.559V32.0415H284.492V12Z" fill="#EC5548"/>
<path d="M259.035 28.2171L254.014 22.1227L259.035 16H266.761L261.74 22.1227L266.761 28.2171H259.035Z" fill="#EC5548"/>
</svg>
